<?xml version="1.0" standalone="no"?>
<!DOCTYPE svg PUBLIC "-//W3C//DTD SVG 20010904//EN"
 "http://www.w3.org/TR/2001/REC-SVG-20010904/DTD/svg10.dtd">
<svg version="1.0" xmlns="http://www.w3.org/2000/svg"
 width="256.000000pt" height="256.000000pt" viewBox="0 0 256.000000 256.000000"
 preserveAspectRatio="xMidYMid meet">
<metadata>
Created by potrace 1.16, written by Peter Selinger 2001-2019
</metadata>
<g transform="translate(0.000000,256.000000) scale(0.100000,-0.100000)"
fill="#000000" stroke="none">
<path d="M900 2550 c0 -5 13 -8 30 -7 39 3 39 17 0 17 -16 0 -30 -4 -30 -10z"/>
<path d="M900 1938 c0 -7 -3 -24 -7 -37 -4 -17 -3 -22 5 -17 7 4 12 2 12 -3 0
-6 -4 -11 -8 -11 -4 0 -12 -24 -18 -54 -5 -30 -7 -53 -4 -51 3 2 6 -33 7 -77
2 -44 7 -86 13 -93 16 -19 18 -167 3 -172 -15 -5 -17 -33 -3 -33 14 0 13 -47
-1 -56 -9 -5 -10 1 -5 20 4 15 2 26 -4 26 -5 0 -10 10 -11 23 0 17 -3 15 -12
-11 -7 -19 -15 -32 -18 -30 -3 1 -13 -3 -21 -10 -13 -11 -16 -6 -21 34 -10 89
-22 63 -16 -34 7 -104 5 -127 -6 -63 -5 33 -10 39 -27 36 -11 -2 -29 4 -40 14
-23 23 -54 17 -62 -11 -5 -19 -7 -20 -28 -6 -25 16 -48 14 -48 -5 0 -7 -12
-13 -27 -14 -15 0 -29 -6 -31 -12 -2 -6 -8 -9 -13 -6 -5 3 -18 1 -31 -6 -18
-10 -24 -9 -34 6 -8 10 -11 30 -7 46 3 16 3 36 -1 44 -12 33 -16 260 -4 294 9
31 12 33 23 18 11 -15 14 -12 24 28 6 25 9 49 7 54 -3 4 1 25 9 47 18 51 18
65 0 58 -11 -4 -13 -2 -9 9 4 11 0 15 -13 13 -10 -1 -33 -25 -50 -52 -18 -27
-33 -42 -33 -35 0 10 -8 7 -25 -9 -20 -19 -27 -21 -40 -10 -21 18 -19 35 7 53
22 14 22 16 6 33 -17 17 -19 16 -43 -12 -14 -16 -34 -30 -45 -31 -11 -2 -29
-4 -39 -5 -11 -2 -28 -12 -38 -23 -10 -11 -45 -49 -77 -84 l-58 -63 7 -82 c16
-175 15 -181 -20 -172 -20 5 -23 2 -20 -17 8 -59 37 -76 57 -32 11 25 11 25
25 5 8 -11 11 -29 8 -41 -4 -11 -2 -25 3 -32 13 -17 35 -143 27 -156 -3 -6 14
-53 38 -104 25 -50 48 -102 52 -114 3 -13 11 -23 16 -23 5 0 9 -7 9 -17 0 -9
12 -32 28 -52 23 -31 27 -45 26 -101 -1 -42 4 -69 13 -78 7 -7 13 -19 13 -27
0 -25 28 -25 34 1 4 15 14 24 26 24 11 0 20 -4 20 -8 0 -5 21 -18 48 -30 62
-29 97 -57 88 -70 -4 -6 -26 -17 -49 -23 -25 -7 -58 -28 -83 -53 -88 -89 -214
-156 -214 -115 0 5 -4 8 -9 5 -5 -4 -12 0 -15 6 -3 7 -3 3 -1 -9 3 -12 1 -24
-6 -28 -34 -22 -77 -175 -49 -175 6 0 10 -8 10 -18 0 -10 5 -23 12 -30 22 -22
0 -24 -40 -3 -22 11 -42 27 -45 36 -4 8 -16 15 -27 15 -18 0 -20 -6 -20 -70
l0 -70 1280 0 1280 0 -1 103 c-1 75 -4 91 -9 62 -4 -22 -8 -31 -9 -20 -1 18
-2 19 -12 2 -12 -20 -36 -23 -36 -3 0 9 7 12 16 9 13 -5 14 -3 4 7 -7 8 -29
15 -50 17 -20 1 -39 7 -43 13 -4 6 -17 9 -31 7 -13 -2 -31 -1 -39 4 -8 4 -33
15 -55 25 -56 24 -138 91 -193 158 -8 10 -29 16 -56 16 -48 0 -76 22 -76 58 0
13 -6 22 -15 22 -8 0 -15 4 -15 9 0 5 -19 33 -41 62 l-42 52 54 50 c43 39 49
48 29 42 -26 -6 -23 -4 60 69 31 27 43 30 31 8 -14 -26 -14 -32 0 -32 5 0 8 4
4 9 -3 5 10 15 29 21 19 6 37 16 39 23 2 7 18 -4 38 -26 31 -35 177 -117 209
-117 8 0 10 -7 5 -22 -17 -56 -16 -68 4 -97 12 -17 49 -49 82 -72 77 -54 99
-92 109 -182 6 -64 7 -56 9 69 1 152 2 149 -61 218 -10 11 -18 23 -18 28 0 4
-18 12 -40 18 -43 11 -64 30 -26 23 41 -8 38 14 -6 46 -23 17 -47 31 -54 31
-6 0 -15 21 -19 48 -9 66 -26 122 -47 157 -23 38 -22 62 3 155 29 108 36 296
15 378 -19 77 -21 158 -3 165 15 5 -97 115 -132 128 -34 14 -35 6 -4 -28 27
-29 68 -137 58 -153 -3 -4 2 -13 10 -20 16 -14 20 -67 6 -89 -5 -8 -7 -21 -3
-29 4 -13 7 -12 13 4 4 11 8 -23 8 -78 1 -55 -3 -100 -9 -103 -5 -3 -10 -19
-10 -36 0 -16 -4 -29 -10 -29 -16 0 -39 -64 -26 -72 15 -10 4 -17 -31 -21 -31
-4 -63 -27 -63 -46 0 -6 -3 -11 -7 -11 -5 0 -13 -11 -20 -25 -14 -32 -3 -32
27 0 13 14 30 25 37 25 12 0 11 -3 -1 -16 -9 -8 -16 -21 -16 -29 0 -7 -8 -15
-18 -17 -12 -4 -23 -21 -30 -50 -12 -48 -53 -94 -75 -85 -9 3 -23 -7 -36 -24
-12 -16 -45 -47 -74 -69 -28 -22 -63 -49 -77 -60 -14 -11 -35 -22 -48 -25 -12
-2 -28 -7 -35 -12 -6 -4 -26 -8 -44 -8 -26 0 -30 3 -22 17 8 14 6 16 -7 11
-12 -4 -15 -3 -10 6 5 7 15 10 23 7 21 -8 49 14 32 25 -9 5 -6 17 14 42 14 19
23 37 20 41 -4 3 -1 6 5 6 7 0 12 5 12 11 0 5 -5 7 -11 3 -7 -4 -1 8 12 27 13
19 28 36 32 37 4 2 4 9 -1 15 -5 7 -12 24 -15 38 -6 22 -14 28 -47 33 -37 6
-40 8 -30 26 6 11 8 21 5 21 -3 1 -9 3 -15 4 -5 1 -14 3 -20 4 -5 0 -10 6 -10
12 0 8 5 8 15 -1 12 -10 15 -9 15 7 0 21 39 63 59 63 7 0 11 6 8 13 -6 16 10
47 24 47 6 0 8 -7 5 -16 -3 -9 -2 -12 5 -8 6 3 8 17 5 30 -4 13 -2 33 4 44 5
11 15 30 21 41 l11 22 -30 -22 c-17 -12 -34 -30 -37 -41 -4 -11 -11 -18 -16
-14 -6 3 -16 0 -24 -6 -12 -10 -15 -9 -15 3 0 8 7 20 15 27 12 10 13 16 4 26
-6 8 -15 11 -20 8 -5 -3 -4 7 1 21 13 33 13 44 0 25 -7 -11 -10 -11 -10 -2 0
7 -4 10 -10 7 -5 -3 -10 -14 -10 -24 0 -10 -9 -26 -19 -35 -19 -17 -19 -17 -6
21 18 49 18 63 -1 88 -13 17 -16 18 -24 5 -5 -8 -11 -19 -13 -23 -3 -11 -57
13 -57 25 0 5 5 6 10 3 6 -3 10 3 10 14 0 14 -6 21 -20 21 -13 0 -18 5 -14 15
8 20 -10 19 -30 -1 -15 -14 -16 -13 -16 10 0 35 3 41 18 38 6 -2 12 2 12 8 0
6 -4 9 -9 5 -18 -10 -25 19 -24 97 1 45 -3 76 -8 72 -12 -7 -11 -2 1 32 6 16
8 50 4 80 -5 44 -9 51 -25 47 -21 -6 -25 -19 -8 -25 23 -8 -22 -38 -56 -38
-34 0 -54 14 -35 25 15 9 12 25 -5 25 -10 0 -15 -11 -16 -32 l-1 -33 -19 40
c-10 22 -19 56 -20 75 -1 32 -2 33 -9 10 -4 -14 -9 -43 -10 -65 -2 -35 -3 -37
-10 -15 -4 14 -8 18 -9 9 -1 -18 -41 -58 -41 -42 0 6 6 13 14 16 22 9 8 46
-14 40 -29 -8 -69 27 -70 60 0 36 -24 31 -28 -6 -2 -15 -10 -27 -18 -27 -8 0
-14 -11 -15 -27 -1 -21 -5 -15 -18 27 l-18 55 -7 -34 c-6 -23 -11 -29 -16 -21
-5 7 -6 19 -3 27 4 9 0 11 -11 7 -9 -3 -19 -17 -22 -29 -4 -18 -12 -23 -30
-21 -36 4 -42 15 -45 76 -3 62 -7 80 -20 80 -5 0 -9 -6 -9 -12z m-520 -158 c0
-5 -5 -10 -11 -10 -5 0 -7 5 -4 10 3 6 8 10 11 10 2 0 4 -4 4 -10z m600 0 c0
-5 -4 -10 -10 -10 -5 0 -10 5 -10 10 0 6 5 10 10 10 6 0 10 -4 10 -10z m-610
-51 c0 -19 -21 -59 -31 -59 -6 0 -9 6 -6 14 3 7 0 19 -6 26 -9 10 -7 11 13 5
21 -7 23 -6 13 7 -10 12 -10 15 2 15 8 0 15 -4 15 -8z m1080 -24 c7 -9 9 -26
5 -45 -4 -17 -3 -30 3 -30 19 0 25 -97 8 -131 -9 -18 -14 -40 -11 -50 4 -11
-1 -22 -13 -28 -16 -9 -21 -7 -25 9 -3 10 0 21 6 23 8 2 6 10 -6 21 -15 15
-21 14 -19 -4 0 -3 -8 -6 -18 -6 -18 0 -18 1 -2 21 9 11 19 22 22 25 15 15 7
27 -13 22 -12 -3 -19 -1 -14 3 4 5 0 17 -10 27 -15 17 -15 18 10 18 15 0 27 5
27 10 0 6 -4 10 -10 10 -5 0 -10 10 -10 23 0 16 3 18 9 9 21 -34 43 -1 35 51
-6 39 4 48 26 22z m-50 -25 c0 -5 -7 -7 -15 -4 -8 4 -15 8 -15 10 0 2 7 4 15
4 8 0 15 -4 15 -10z m17 -32 c-3 -7 -5 -2 -5 12 0 14 2 19 5 13 2 -7 2 -19 0
-25z m-67 -50 c0 -19 -16 -5 -17 14 -2 18 0 20 7 8 5 -8 10 -18 10 -22z m-20
-38 c0 -5 -4 -10 -10 -10 -5 0 -10 5 -10 10 0 6 5 10 10 10 6 0 10 -4 10 -10z
m-910 -94 c0 -78 -7 -69 -14 19 -4 48 -3 65 4 55 5 -8 10 -42 10 -74z m627 22
c-3 -7 -5 -2 -5 12 0 14 2 19 5 13 2 -7 2 -19 0 -25z m-700 -60 c-3 -8 -6 -5
-6 6 -1 11 2 17 5 13 3 -3 4 -12 1 -19z m11 -50 c-1 -18 3 -33 10 -36 6 -2 12
-15 12 -30 0 -25 0 -25 -16 -6 -15 19 -15 18 -11 -3 3 -13 2 -23 -3 -23 -19 0
-26 100 -8 118 17 17 19 16 16 -20z m1145 -23 c-3 -9 -8 -14 -10 -11 -3 3 -2
9 2 15 9 16 15 13 8 -4z m-666 -57 c-3 -7 -5 -2 -5 12 0 14 2 19 5 13 2 -7 2
-19 0 -25z m-452 -58 c3 -5 -1 -10 -9 -10 -9 0 -16 5 -16 10 0 6 4 10 9 10 6
0 13 -4 16 -10z m1329 -88 c2 -4 -4 -8 -14 -8 -10 0 -16 4 -14 8 3 4 9 8 14 8
5 0 11 -4 14 -8z m-76 -32 c-7 -10 -14 -17 -17 -15 -4 4 18 35 25 35 2 0 -1
-9 -8 -20z m102 -4 c0 -3 -4 -8 -10 -11 -5 -3 -10 -1 -10 4 0 6 5 11 10 11 6
0 10 -2 10 -4z m18 -182 c6 -2 12 -9 12 -15 0 -9 -3 -9 -14 0 -11 9 -15 9 -20
-1 -5 -10 -7 -10 -12 0 -3 6 -12 12 -20 12 -8 0 -14 5 -14 10 0 9 27 7 68 -6z
m-369 -25 c-13 -25 -17 -24 -15 5 0 14 6 22 13 19 9 -4 10 -10 2 -24z m261 27
c0 -2 -7 -9 -15 -16 -13 -11 -14 -10 -9 4 5 14 24 23 24 12z m-122 -25 c12
-10 22 -22 22 -27 0 -5 9 -15 20 -22 24 -14 18 -34 -7 -25 -11 4 -14 3 -9 -5
4 -7 14 -12 22 -12 8 0 14 -4 14 -10 0 -5 -7 -10 -15 -10 -8 0 -15 -5 -15 -11
0 -6 -14 -9 -32 -7 -19 2 -32 8 -31 15 2 7 -4 10 -12 7 -8 -4 -15 -1 -15 5 0
6 7 11 15 11 21 0 19 17 -4 23 -12 3 -18 13 -18 31 0 20 3 24 10 17 16 -16 27
-13 27 7 0 14 -2 15 -10 2 -5 -8 -10 -10 -10 -4 0 8 19 34 25 34 1 0 12 -8 23
-19z m-408 -47 c0 -2 -9 -4 -21 -4 -11 0 -18 4 -14 10 5 8 35 3 35 -6z m-73
-89 c-5 -11 -15 -24 -21 -28 -8 -6 -7 -10 2 -14 6 -2 12 -14 12 -24 0 -13 4
-18 12 -13 7 4 8 3 4 -5 -9 -14 -26 -5 -26 15 0 8 -10 14 -25 14 -27 0 -28 4
-15 35 5 11 9 14 9 6 1 -11 4 -11 16 -1 9 7 15 20 14 29 -2 28 1 32 15 19 10
-10 11 -18 3 -33z m294 35 c8 12 9 10 4 -7 -6 -23 1 -28 33 -24 6 1 12 -6 13
-16 0 -11 3 -13 6 -5 2 6 9 12 14 12 5 0 8 -6 7 -12 -2 -8 7 -13 22 -13 17 0
24 -5 22 -15 -2 -8 -8 -16 -13 -18 -5 -2 -9 -10 -9 -17 0 -8 -10 -21 -22 -30
-22 -16 -22 -16 -4 -30 10 -8 23 -12 27 -9 4 2 7 -5 6 -16 -1 -23 -8 -25 -26
-7 -12 10 -13 9 -7 -7 4 -13 -2 -25 -21 -42 -32 -27 -63 -31 -63 -8 0 8 5 12
10 9 6 -3 13 1 16 9 3 9 12 16 20 16 9 0 14 11 14 30 0 33 -7 36 -44 19 -30
-14 -46 -45 -19 -35 16 5 16 4 -1 -9 -19 -14 -41 -11 -31 5 3 4 -4 10 -15 13
-22 6 -27 -12 -8 -31 13 -13 8 -15 -16 -6 -9 3 -16 12 -16 20 0 9 -11 14 -29
14 -23 0 -30 -5 -33 -25 -6 -31 8 -44 44 -40 15 2 30 -1 33 -6 4 -5 18 -6 33
-3 15 4 24 4 20 0 -3 -4 -8 -7 -10 -6 -2 0 -21 -8 -43 -19 -38 -18 -42 -18
-68 -3 -26 16 -28 20 -22 57 9 51 9 56 0 79 -6 14 -4 17 6 14 13 -4 44 40 35
49 -10 10 -46 -9 -39 -20 4 -7 0 -6 -10 2 -9 7 -14 17 -12 22 3 4 -4 6 -15 4
-19 -4 -21 -1 -15 27 5 20 4 28 -3 24 -15 -9 -26 14 -14 26 8 8 16 7 27 -2 11
-9 18 -10 29 -1 7 6 21 9 30 5 12 -5 15 -2 10 10 -8 21 4 20 44 -4 17 -11 32
-17 32 -14 0 4 7 1 15 -6 12 -10 15 -10 15 4 0 9 4 16 10 16 5 0 7 8 4 18 -5
14 -4 15 5 2 10 -13 12 -13 22 0z m-395 -59 c-21 -21 -26 -22 -26 -8 0 9 -7
17 -15 17 -8 0 -15 5 -15 10 0 6 10 8 24 4 19 -4 28 0 38 15 11 18 14 19 16 5
2 -9 -8 -28 -22 -43z m663 -1 c5 0 11 -9 14 -20 6 -25 -18 -51 -40 -43 -10 4
-14 2 -9 -5 4 -7 -2 -8 -23 -2 -25 7 -29 6 -24 -8 5 -11 3 -13 -7 -7 -8 5 -11
4 -6 -3 3 -6 1 -14 -5 -18 -8 -5 -10 1 -7 19 3 16 0 28 -8 31 -17 7 -18 -8 -2
-51 11 -30 28 -45 28 -25 0 5 8 18 18 30 18 20 18 20 18 -15 0 -20 -2 -31 -3
-26 -3 7 -18 4 -41 -7 -37 -18 -63 -17 -43 3 7 7 5 14 -6 23 -14 10 -15 15 -5
27 7 8 12 19 11 23 -4 24 3 35 24 33 12 -1 37 -1 55 -1 31 2 32 4 33 45 0 35
2 38 9 20 5 -13 13 -23 19 -23z m-882 -2 c-3 -8 -6 -5 -6 6 -1 11 2 17 5 13 3
-3 4 -12 1 -19z m253 2 c0 -5 -4 -10 -10 -10 -5 0 -10 5 -10 10 0 6 5 10 10
10 6 0 10 -4 10 -10z m570 -4 c0 -2 -8 -10 -17 -17 -16 -13 -17 -12 -4 4 13
16 21 21 21 13z m-704 -83 c13 -32 13 -33 -6 -21 -11 7 -20 20 -21 28 0 8 -2
29 -4 45 -3 29 -3 29 7 5 5 -14 16 -40 24 -57z m163 25 c21 -22 27 -36 20 -44
-15 -18 19 -48 37 -33 16 13 19 -2 3 -18 -8 -8 -8 -13 0 -17 6 -4 20 8 32 26
17 27 19 29 13 8 -3 -14 -11 -26 -15 -28 -5 -2 -9 -11 -9 -19 0 -14 -3 -14
-20 2 -19 18 -21 17 -45 -11 -13 -15 -22 -30 -19 -33 3 -3 9 1 15 9 8 13 10
13 19 0 14 -21 13 -53 -2 -44 -6 4 -24 10 -40 13 -27 6 -28 6 -13 35 9 16 14
35 11 43 -3 7 -1 15 4 18 5 3 1 20 -9 38 -23 40 -35 87 -22 87 6 0 23 -14 40
-32z m95 15 c3 -10 9 -24 12 -30 3 -8 -2 -13 -15 -13 -13 0 -19 5 -15 14 3 8
0 17 -5 21 -6 3 -9 11 -6 16 9 14 22 11 29 -8z m-137 -80 c-8 -8 -35 9 -41 25
-3 9 -9 24 -12 32 -3 8 8 0 25 -19 17 -19 30 -36 28 -38z m410 -18 c-4 -8 -11
-15 -17 -15 -7 0 -7 6 0 21 13 23 26 19 17 -6z m-467 -32 c0 -23 -21 -25 -41
-2 -30 35 -25 51 11 31 16 -9 30 -22 30 -29z m59 -20 c-7 -10 -14 -20 -16 -22
-1 -2 -1 6 0 18 1 11 8 21 15 21 12 0 12 -3 1 -17z m95 -14 c-3 -5 -10 -7 -15
-3 -5 3 -7 10 -3 15 3 5 10 7 15 3 5 -3 7 -10 3 -15z m69 -18 c-23 -23 -55
-25 -51 -4 2 11 12 18 26 17 14 0 22 5 22 15 0 13 2 14 9 2 6 -9 4 -20 -6 -30z
m202 -11 c-3 -5 -12 -10 -18 -10 -7 0 -6 4 3 10 19 12 23 12 15 0z m-148 -116
c-3 -3 -12 -4 -19 -1 -8 3 -5 6 6 6 11 1 17 -2 13 -5z m1323 -325 c0 -5 -4 -9
-8 -9 -5 0 -9 7 -9 15 0 8 4 12 9 9 4 -3 8 -9 8 -15z"/>
<path d="M1516 865 c-3 -9 0 -15 9 -15 16 0 20 16 6 24 -5 3 -11 -1 -15 -9z"/>
<path d="M1218 773 c6 -2 18 -2 25 0 6 3 1 5 -13 5 -14 0 -19 -2 -12 -5z"/>
<path d="M1305 759 c-4 -12 -12 -18 -21 -15 -21 8 -17 -8 7 -22 12 -8 18 -19
15 -28 -8 -22 22 -50 36 -36 9 9 7 16 -5 30 -10 11 -15 29 -12 50 5 36 -10 53
-20 21z"/>
<path d="M1160 756 c0 -9 5 -16 10 -16 6 0 10 4 10 9 0 6 -4 13 -10 16 -5 3
-10 -1 -10 -9z"/>
<path d="M1376 721 c-13 -5 -16 -10 -8 -15 6 -3 8 -14 5 -22 -4 -12 -1 -15 13
-12 13 2 19 12 19 31 1 29 0 30 -29 18z"/>
<path d="M1230 713 c1 -11 26 -43 34 -43 15 0 4 30 -14 40 -11 6 -20 7 -20 3z"/>
<path d="M1250 654 c0 0 11 -10 25 -22 l25 -22 0 24 c0 19 -5 24 -25 22 -14 0
-25 -1 -25 -2z"/>
<path d="M1590 699 c0 -5 5 -7 10 -4 6 3 10 8 10 11 0 2 -4 4 -10 4 -5 0 -10
-5 -10 -11z"/>
<path d="M2123 1890 c8 -40 -5 -45 -41 -15 -33 28 -62 33 -62 10 0 -8 5 -15
10 -15 6 0 10 -7 10 -16 0 -11 6 -13 19 -9 30 9 96 -29 152 -88 43 -45 49 -48
38 -22 -7 17 -24 46 -36 65 -13 19 -23 40 -23 47 0 16 -49 73 -63 73 -5 0 -7
-13 -4 -30z"/>
<path d="M762 1785 c1 -57 5 -102 8 -99 8 9 6 204 -3 204 -5 0 -7 -47 -5 -105z"/>
<path d="M802 1870 c0 -14 2 -19 5 -12 2 6 2 18 0 25 -3 6 -5 1 -5 -13z"/>
<path d="M817 1850 c-6 -24 8 -36 17 -14 8 22 7 34 -3 34 -5 0 -11 -9 -14 -20z"/>
<path d="M1655 1811 c2 -30 -1 -53 -7 -57 -7 -5 -8 -2 -3 7 8 12 6 12 -8 0
-22 -18 -11 -34 14 -21 13 7 19 7 19 0 0 -5 -6 -10 -12 -10 -8 0 -6 -5 4 -11
10 -5 15 -16 12 -24 -4 -8 -1 -15 5 -15 13 0 13 6 -3 98 -16 87 -26 104 -21
33z"/>
<path d="M960 1835 c7 -9 15 -13 17 -11 7 7 -7 26 -19 26 -6 0 -6 -6 2 -15z"/>
<path d="M325 1810 c-3 -5 -1 -10 4 -10 6 0 11 5 11 10 0 6 -2 10 -4 10 -3 0
-8 -4 -11 -10z"/>
<path d="M1600 1796 c0 -8 5 -18 10 -21 6 -3 10 1 10 9 0 8 -4 18 -10 21 -5 3
-10 -1 -10 -9z"/>
<path d="M2075 1800 c3 -5 8 -10 11 -10 2 0 4 5 4 10 0 6 -5 10 -11 10 -5 0
-7 -4 -4 -10z"/>
<path d="M1393 1770 c1 -11 5 -20 9 -20 4 0 8 9 8 20 0 11 -4 20 -9 20 -6 0
-9 -9 -8 -20z"/>
<path d="M1560 1765 c0 -8 4 -15 10 -15 5 0 7 7 4 15 -4 8 -8 15 -10 15 -2 0
-4 -7 -4 -15z"/>
<path d="M2029 1763 c18 -33 40 -58 41 -46 0 23 -23 63 -37 63 -10 0 -11 -5
-4 -17z"/>
<path d="M1959 1752 c14 -26 41 -48 41 -33 0 6 -4 11 -9 11 -5 0 -11 9 -14 20
-3 11 -10 20 -16 20 -8 0 -9 -6 -2 -18z"/>
<path d="M2330 1666 c0 -2 9 -6 20 -9 11 -3 18 -1 14 4 -5 9 -34 13 -34 5z"/>
<path d="M2200 1520 c0 -11 7 -20 15 -20 8 0 15 6 15 14 0 8 -7 16 -15 20 -10
4 -15 -1 -15 -14z"/>
<path d="M1532 1444 c-7 -8 -8 -14 -3 -14 10 0 25 19 20 25 -2 1 -10 -3 -17
-11z"/>
<path d="M1776 1274 c-10 -20 -15 -24 -16 -11 0 9 -7 17 -15 17 -14 0 -13 -3
2 -24 18 -24 43 -25 43 -1 0 7 4 15 10 17 5 2 6 9 1 17 -7 11 -12 7 -25 -15z"/>
<path d="M50 1253 c0 -5 11 -21 25 -38 22 -27 24 -28 25 -9 0 11 -8 28 -18 37
-20 18 -32 22 -32 10z"/>
<path d="M1835 1230 c-3 -5 -1 -10 4 -10 6 0 11 5 11 10 0 6 -2 10 -4 10 -3 0
-8 -4 -11 -10z"/>
<path d="M1796 1064 c-9 -8 -16 -18 -16 -20 0 -7 38 15 45 26 10 16 -12 12
-29 -6z"/>
<path d="M2036 883 c-6 -14 -5 -15 5 -6 7 7 10 15 7 18 -3 3 -9 -2 -12 -12z"/>
<path d="M2005 850 c3 -5 10 -10 16 -10 5 0 9 5 9 10 0 6 -7 10 -16 10 -8 0
-12 -4 -9 -10z"/>
<path d="M1993 713 c0 -9 4 -10 14 -2 7 6 13 12 13 14 0 1 -6 2 -13 2 -8 0
-14 -6 -14 -14z"/>
<path d="M213 482 c-45 -49 -42 -64 3 -18 19 20 34 41 32 45 -2 5 -18 -7 -35
-27z"/>
<path d="M113 436 c-23 -17 -42 -35 -43 -39 0 -5 4 -6 9 -3 4 3 6 -5 4 -18 -7
-35 9 -38 50 -11 33 23 37 24 46 8 6 -10 11 -13 11 -6 0 6 -4 15 -10 18 -5 3
-10 21 -10 40 0 19 -3 36 -7 38 -5 3 -27 -9 -50 -27z"/>
</g>
</svg>
